<?xml version="1.0" standalone="no"?>
<!DOCTYPE svg PUBLIC "-//W3C//DTD SVG 20010904//EN"
 "http://www.w3.org/TR/2001/REC-SVG-20010904/DTD/svg10.dtd">
<svg version="1.0" xmlns="http://www.w3.org/2000/svg"
 width="512.000000pt" height="512.000000pt" viewBox="0 0 512.000000 512.000000"
 preserveAspectRatio="xMidYMid meet">
<metadata>
Created by potrace 1.14, written by Peter Selinger 2001-2017
</metadata>
<g transform="translate(0.000000,512.000000) scale(0.100000,-0.100000)"
fill="#000000" stroke="none">
<path d="M2490 4717 c-14 -8 -73 -41 -130 -74 -58 -33 -267 -153 -465 -267
-198 -114 -385 -222 -415 -240 -30 -18 -109 -64 -175 -101 -66 -37 -131 -77
-143 -89 -21 -19 -53 -68 -52 -81 0 -3 0 -223 0 -489 l0 -484 -67 -23 c-305
-101 -596 -261 -771 -424 -172 -160 -259 -328 -268 -518 -16 -344 227 -647
708 -880 64 -32 121 -57 127 -57 6 0 19 -5 29 -10 31 -18 194 -76 297 -105 55
-16 102 -30 104 -31 1 -2 -11 -69 -29 -150 -19 -87 -30 -162 -27 -181 11 -68
77 -123 146 -123 24 0 199 62 306 109 11 5 130 53 265 106 135 54 255 105 268
113 28 18 62 82 62 117 0 57 -34 101 -233 303 -416 422 -403 410 -451 417 -60
9 -128 -21 -152 -66 -14 -27 -59 -208 -78 -313 -3 -16 -7 -31 -10 -34 -3 -2
-52 10 -108 28 -316 99 -550 215 -713 354 -356 301 -261 627 265 909 79 43
301 137 321 137 5 0 9 -56 9 -125 0 -131 10 -175 46 -207 19 -16 145 -90 784
-458 184 -106 382 -221 440 -255 106 -61 151 -82 180 -79 8 1 22 2 30 3 18 1
93 44 825 466 275 158 515 299 534 313 51 38 61 74 61 217 0 69 3 125 8 125
12 0 81 -26 88 -33 4 -4 14 -7 22 -7 7 0 73 -29 145 -64 293 -141 467 -296
528 -471 64 -181 -44 -386 -289 -548 -312 -208 -899 -381 -1495 -441 -93 -9
-162 -84 -152 -165 9 -72 85 -142 148 -136 12 1 57 6 100 10 43 3 88 8 100 10
12 2 43 6 68 9 49 7 89 14 129 21 14 3 43 8 65 11 22 3 67 12 100 19 33 8 74
16 90 19 17 3 82 19 145 36 63 17 132 35 152 41 86 21 331 115 445 169 457
218 686 474 709 795 26 341 -217 648 -701 885 -77 38 -200 90 -272 116 l-133
47 0 483 c0 318 -4 492 -11 511 -14 38 -47 72 -87 89 -34 14 -217 118 -917
523 -426 246 -440 252 -505 218z m510 -567 c212 -123 399 -231 415 -240 17
-10 50 -29 75 -42 24 -14 46 -30 47 -34 2 -5 -133 -87 -299 -183 -167 -96
-314 -181 -328 -190 -14 -9 -34 -21 -45 -26 -11 -6 -84 -48 -162 -94 l-143
-82 -92 54 c-51 30 -115 67 -143 82 -27 15 -54 31 -60 35 -5 4 -30 18 -55 32
-73 40 -234 134 -278 162 -23 14 -43 26 -45 26 -2 0 -76 42 -165 93 l-160 94
146 84 c81 46 304 175 496 286 l349 201 31 -18 c17 -9 204 -118 416 -240z
m-1522 -612 c31 -17 89 -50 127 -73 39 -23 167 -97 285 -165 118 -68 226 -130
240 -139 14 -8 41 -24 60 -35 19 -10 77 -43 128 -73 l92 -54 0 -570 c0 -314
-4 -569 -9 -567 -4 2 -229 131 -500 287 l-491 283 0 569 c0 313 2 569 6 569 3
0 31 -14 62 -32z m2232 -537 l0 -569 -127 -73 c-71 -41 -136 -78 -145 -84 -9
-5 -34 -19 -55 -31 -21 -12 -150 -86 -288 -166 -137 -80 -263 -153 -280 -162
-16 -9 -43 -25 -60 -36 -16 -10 -33 -19 -37 -19 -5 -1 -8 255 -8 568 l0 569
128 75 c70 41 147 85 172 99 42 23 339 195 473 274 32 19 60 34 62 34 1 0 36
20 76 45 41 24 77 45 82 45 4 0 7 -256 7 -569z m-1870 -2106 c0 -6 -261 -107
-266 -102 -4 4 48 255 62 297 3 10 37 -19 105 -89 54 -56 99 -104 99 -106z"/>
</g>
</svg>
